<svg xmlns="http://www.w3.org/2000/svg" xmlns:xlink="http://www.w3.org/1999/xlink" zoomAndPan="magnify" preserveAspectRatio="xMidYMid meet" version="1.0" viewBox="16.77 18.22 331.48 113.42"><defs><clipPath id="e9d7068e0f"><path d="M 280.410156 84.246094 L 286.230469 84.246094 L 286.230469 87.988281 L 280.410156 87.988281 Z M 280.410156 84.246094 " clip-rule="nonzero"/></clipPath><clipPath id="a81533cf21"><path d="M 285.449219 85.875 C 280.800781 87.601562 280.425781 84.523438 280.726562 84.375 C 280.875 84.226562 281.851562 84.898438 281.851562 85.125 C 281.773438 85.273438 280.726562 85.648438 280.5 85.5 C 280.351562 85.351562 280.425781 84.523438 280.648438 84.375 C 280.800781 84.226562 281.324219 84.226562 281.550781 84.375 C 282 84.675781 282.523438 86.25 282.449219 86.851562 C 282.375 87.300781 281.925781 87.976562 281.699219 87.976562 C 281.476562 87.898438 281.023438 87.148438 281.175781 86.699219 C 281.324219 86.101562 282.824219 85.199219 283.648438 84.824219 C 284.324219 84.523438 285.375 84.300781 285.824219 84.449219 C 286.050781 84.601562 286.199219 84.976562 286.199219 85.199219 C 286.125 85.5 285.449219 85.875 285.449219 85.875 " clip-rule="nonzero"/></clipPath><clipPath id="d34ac36b8e"><path d="M 280.789062 84.0625 L 285.089844 84.0625 L 285.089844 87.746094 L 280.789062 87.746094 Z M 280.789062 84.0625 " clip-rule="nonzero"/></clipPath><clipPath id="be81ffe314"><path d="M 285.074219 85.351562 C 283.125 88.425781 281.324219 87.824219 280.949219 87.226562 C 280.574219 86.550781 280.949219 84.75 281.550781 84.300781 C 282.074219 83.773438 284.476562 84.449219 284.476562 84.449219 " clip-rule="nonzero"/></clipPath><clipPath id="fa9f470164"><path d="M 279.441406 84.214844 L 283.738281 84.214844 L 283.738281 87.898438 L 279.441406 87.898438 Z M 279.441406 84.214844 " clip-rule="nonzero"/></clipPath><clipPath id="0246464d0e"><path d="M 283.726562 85.5 C 281.773438 88.574219 279.976562 87.976562 279.601562 87.375 C 279.226562 86.699219 279.601562 84.898438 280.199219 84.449219 C 280.726562 83.925781 283.125 84.601562 283.125 84.601562 " clip-rule="nonzero"/></clipPath><clipPath id="849deb152e"><path d="M 292.519531 83.6875 L 298.96875 83.6875 L 298.96875 88.472656 L 292.519531 88.472656 Z M 292.519531 83.6875 " clip-rule="nonzero"/></clipPath><clipPath id="04a815fd43"><path d="M 297 88.273438 C 293.550781 88.199219 293.101562 87.898438 292.875 87.449219 C 292.574219 86.925781 292.425781 85.949219 292.648438 85.351562 C 292.875 84.75 293.699219 84.148438 294.226562 84 C 294.75 83.851562 295.273438 83.925781 295.726562 84.148438 C 296.25 84.449219 296.925781 85.199219 297 85.800781 C 297.074219 86.476562 296.773438 87.375 296.324219 87.824219 C 295.875 88.273438 294.898438 88.574219 294.226562 88.425781 C 293.625 88.273438 292.800781 87.601562 292.648438 87 C 292.425781 86.324219 292.726562 84.898438 293.398438 84.375 C 294.074219 83.773438 296.023438 83.550781 297 83.773438 C 297.675781 83.925781 298.425781 84.449219 298.726562 84.976562 C 299.023438 85.5 299.023438 86.550781 298.726562 87.074219 C 298.425781 87.675781 297 88.273438 297 88.273438 " clip-rule="nonzero"/></clipPath><clipPath id="4f97c8d581"><path d="M 280.691406 84.976562 L 286.585938 84.976562 L 286.585938 89.128906 L 280.691406 89.128906 Z M 280.691406 84.976562 " clip-rule="nonzero"/></clipPath><clipPath id="71ce6a46aa"><path d="M 285.148438 88.800781 C 282 89.023438 281.324219 88.726562 281.023438 88.351562 C 280.726562 87.898438 280.648438 87 280.800781 86.550781 C 281.023438 86.023438 281.625 85.425781 282.148438 85.351562 C 282.75 85.273438 283.949219 85.800781 284.25 86.324219 C 284.550781 86.773438 284.550781 87.675781 284.25 88.125 C 284.023438 88.574219 283.351562 89.101562 282.824219 89.101562 C 282.300781 89.175781 281.476562 88.800781 281.175781 88.5 C 280.875 88.199219 280.726562 87.75 280.726562 87.375 C 280.726562 86.851562 280.949219 86.101562 281.476562 85.726562 C 282.074219 85.199219 283.875 84.824219 284.773438 85.050781 C 285.523438 85.273438 286.5 86.101562 286.574219 86.773438 C 286.648438 87.375 285.074219 88.800781 285.074219 88.800781 " clip-rule="nonzero"/></clipPath><clipPath id="42bdecb3e8"><path d="M 283.535156 82.910156 L 287.101562 82.910156 L 287.101562 85.9375 L 283.535156 85.9375 Z M 283.535156 82.910156 " clip-rule="nonzero"/></clipPath><clipPath id="9c2aede92c"><path d="M 287.101562 84 C 285.523438 86.476562 284.023438 86.023438 283.726562 85.5 C 283.351562 84.976562 283.648438 83.476562 284.175781 83.101562 C 284.625 82.648438 286.648438 83.25 286.648438 83.25 " clip-rule="nonzero"/></clipPath><clipPath id="f031d5a217"><path d="M 283.625 83.007812 L 287.789062 83.007812 L 287.789062 87.167969 L 283.625 87.167969 Z M 283.625 83.007812 " clip-rule="nonzero"/></clipPath><clipPath id="913c6fad33"><path d="M 287.25 83.925781 C 287.773438 85.5 287.550781 86.324219 287.175781 86.699219 C 286.800781 87.074219 285.976562 87.226562 285.449219 87.148438 C 284.925781 87 284.324219 86.398438 284.101562 85.949219 C 283.949219 85.425781 284.023438 84.601562 284.324219 84.148438 C 284.699219 83.773438 285.449219 83.398438 285.976562 83.398438 C 286.5 83.398438 287.25 83.851562 287.476562 84.300781 C 287.773438 84.675781 287.851562 85.574219 287.625 86.023438 C 287.398438 86.550781 286.800781 87.074219 286.273438 87.148438 C 285.675781 87.226562 284.550781 86.925781 284.175781 86.398438 C 283.726562 85.800781 283.425781 84.300781 283.800781 83.773438 C 284.175781 83.175781 286.351562 83.023438 286.351562 83.023438 " clip-rule="nonzero"/></clipPath><clipPath id="b6a31d33cc"><path d="M 281.136719 83.359375 L 284.703125 83.359375 L 284.703125 86.386719 L 281.136719 86.386719 Z M 281.136719 83.359375 " clip-rule="nonzero"/></clipPath><clipPath id="024d6a3ffe"><path d="M 284.699219 84.449219 C 283.125 86.925781 281.625 86.476562 281.324219 85.949219 C 280.949219 85.425781 281.25 83.925781 281.773438 83.550781 C 282.226562 83.101562 284.25 83.699219 284.25 83.699219 " clip-rule="nonzero"/></clipPath><clipPath id="2847221dce"><path d="M 284.136719 80.960938 L 287.703125 80.960938 L 287.703125 83.988281 L 284.136719 83.988281 Z M 284.136719 80.960938 " clip-rule="nonzero"/></clipPath><clipPath id="acc69a6591"><path d="M 287.699219 82.050781 C 286.125 84.523438 284.625 84.074219 284.324219 83.550781 C 283.949219 83.023438 284.25 81.523438 284.773438 81.148438 C 285.226562 80.699219 287.25 81.300781 287.25 81.300781 " clip-rule="nonzero"/></clipPath><clipPath id="451dcb681b"><path d="M 291.9375 82.761719 L 295.503906 82.761719 L 295.503906 85.789062 L 291.9375 85.789062 Z M 291.9375 82.761719 " clip-rule="nonzero"/></clipPath><clipPath id="053f9524e8"><path d="M 295.5 83.851562 C 293.925781 86.324219 292.425781 85.875 292.125 85.351562 C 291.75 84.824219 292.050781 83.324219 292.574219 82.949219 C 293.023438 82.5 295.050781 83.101562 295.050781 83.101562 " clip-rule="nonzero"/></clipPath><clipPath id="4756cd05bc"><path d="M 293.011719 82.113281 L 294.039062 82.113281 L 294.039062 84.253906 L 293.011719 84.253906 Z M 293.011719 82.113281 " clip-rule="nonzero"/></clipPath><clipPath id="42beb5ee49"><path d="M 293.023438 82.125 C 294.824219 83.25 293.625 84.226562 293.625 84.226562 " clip-rule="nonzero"/></clipPath><clipPath id="c9289028f0"><path d="M 293.75 81.953125 L 294.300781 81.953125 L 294.300781 82.585938 L 293.75 82.585938 Z M 293.75 81.953125 " clip-rule="nonzero"/></clipPath><clipPath id="4a7b07b442"><path d="M 294.300781 82.574219 C 293.324219 82.574219 294 81.976562 294 81.976562 " clip-rule="nonzero"/></clipPath><clipPath id="3aa2bcf237"><path d="M 293.226562 81.511719 L 294.761719 81.511719 L 294.761719 85.167969 L 293.226562 85.167969 Z M 293.226562 81.511719 " clip-rule="nonzero"/></clipPath><clipPath id="d462ce88b0"><path d="M 294.75 82.125 C 293.773438 85.351562 293.476562 85.273438 293.324219 85.050781 C 293.101562 84.75 293.324219 83.324219 293.476562 82.648438 C 293.625 82.199219 294 81.523438 294.226562 81.523438 C 294.449219 81.523438 294.75 82.125 294.75 82.125 " clip-rule="nonzero"/></clipPath><clipPath id="df6b708919"><path d="M 293.589844 82.183594 L 293.945312 82.183594 L 293.945312 82.4375 L 293.589844 82.4375 Z M 293.589844 82.183594 " clip-rule="nonzero"/></clipPath><clipPath id="d3c386344e"><path d="M 293.925781 82.351562 C 293.25 82.574219 293.851562 82.199219 293.851562 82.199219 " clip-rule="nonzero"/></clipPath><clipPath id="0260425771"><path d="M 292.839844 80.515625 L 296.210938 80.515625 L 296.210938 86.046875 L 292.839844 86.046875 Z M 292.839844 80.515625 " clip-rule="nonzero"/></clipPath><clipPath id="397ac4adca"><path d="M 293.324219 80.550781 C 296.023438 84.601562 294 84.976562 293.625 84.824219 C 293.398438 84.675781 293.25 84.226562 293.324219 84.074219 C 293.398438 83.925781 293.925781 83.851562 294.148438 84 C 294.449219 84.148438 294.824219 85.125 294.675781 85.425781 C 294.601562 85.648438 294 85.875 294 85.875 C 294 85.875 294.675781 85.425781 294.675781 85.425781 C 294.75 85.5 294.449219 86.023438 294.300781 86.023438 C 294.074219 85.949219 293.101562 84.449219 293.324219 84.074219 C 293.550781 83.699219 296.101562 83.925781 296.175781 84 C 296.175781 84.074219 295.800781 84.375 295.5 84.300781 C 294.898438 84.148438 292.800781 81.675781 292.875 81.074219 C 292.875 80.773438 293.324219 80.550781 293.324219 80.550781 " clip-rule="nonzero"/></clipPath><clipPath id="80638e5600"><path d="M 292.628906 81.054688 L 295.078125 81.054688 L 295.078125 85.292969 L 292.628906 85.292969 Z M 292.628906 81.054688 " clip-rule="nonzero"/></clipPath><clipPath id="56f78d2bca"><path d="M 294.148438 81.824219 C 294.074219 83.476562 295.125 84.148438 295.050781 84.601562 C 295.050781 84.898438 294.675781 85.273438 294.449219 85.273438 C 294.226562 85.273438 293.476562 84.375 293.625 84.148438 C 293.699219 84 294.976562 84.074219 295.050781 84.226562 C 295.125 84.449219 294.375 85.351562 294.074219 85.273438 C 293.550781 85.199219 292.574219 82.949219 292.648438 82.199219 C 292.648438 81.75 293.023438 81.148438 293.324219 81.074219 C 293.550781 81.074219 294.148438 81.824219 294.148438 81.824219 " clip-rule="nonzero"/></clipPath><clipPath id="6ca3a42e93"><path d="M 57.277344 21.203125 L 61.320312 21.203125 L 61.320312 23.273438 L 57.277344 23.273438 Z M 57.277344 21.203125 " clip-rule="nonzero"/></clipPath><clipPath id="5ac45e27b1"><path d="M 57.824219 21.675781 C 61.273438 21.523438 61.125 22.648438 60.976562 22.726562 C 60.75 22.800781 60 22.125 60 21.898438 C 60 21.675781 60.675781 21.148438 60.898438 21.226562 C 61.125 21.300781 61.425781 22.273438 61.273438 22.574219 C 60.898438 23.101562 58.726562 23.398438 58.050781 23.175781 C 57.675781 23.101562 57.300781 22.800781 57.300781 22.574219 C 57.226562 22.273438 57.824219 21.675781 57.824219 21.675781 " clip-rule="nonzero"/></clipPath><clipPath id="4a74ee0468"><path d="M 53.828125 21.769531 L 62.238281 21.769531 L 62.238281 24.019531 L 53.828125 24.019531 Z M 53.828125 21.769531 " clip-rule="nonzero"/></clipPath><clipPath id="23ba1f0b9e"><path d="M 53.851562 22.574219 C 56.925781 21.601562 57.675781 22.574219 57.675781 22.574219 C 57.675781 22.574219 57 22.199219 57 22.050781 C 57.074219 21.898438 57.601562 21.824219 58.050781 21.824219 C 58.875 21.75 61.199219 21.824219 61.800781 22.351562 C 62.175781 22.726562 62.324219 23.550781 62.175781 23.773438 C 61.949219 23.925781 60.75 23.550781 60.675781 23.324219 C 60.601562 23.101562 61.425781 22.273438 61.648438 22.351562 C 61.949219 22.425781 62.25 23.550781 62.023438 23.851562 C 61.5 24.449219 57.601562 23.101562 56.175781 23.25 C 55.351562 23.324219 54.601562 24.148438 54.226562 23.925781 C 53.925781 23.773438 53.851562 22.574219 53.851562 22.574219 " clip-rule="nonzero"/></clipPath><clipPath id="a95b2f28b8"><path d="M 56.429688 21.902344 L 57.910156 21.902344 L 57.910156 23.152344 L 56.429688 23.152344 Z M 56.429688 21.902344 " clip-rule="nonzero"/></clipPath><clipPath id="bbd9bc520e"><path d="M 57.898438 22.351562 C 57.226562 23.398438 56.625 23.175781 56.476562 22.949219 C 56.398438 22.800781 56.476562 22.125 56.699219 21.976562 C 56.851562 21.824219 57.675781 22.050781 57.675781 22.050781 " clip-rule="nonzero"/></clipPath><clipPath id="0c7d576305"><path d="M 60.628906 21.300781 L 62.109375 21.300781 L 62.109375 22.550781 L 60.628906 22.550781 Z M 60.628906 21.300781 " clip-rule="nonzero"/></clipPath><clipPath id="f78d46f0d2"><path d="M 62.101562 21.75 C 61.425781 22.800781 60.824219 22.574219 60.675781 22.351562 C 60.601562 22.199219 60.675781 21.523438 60.898438 21.375 C 61.050781 21.226562 61.875 21.449219 61.875 21.449219 " clip-rule="nonzero"/></clipPath><clipPath id="949559f1cc"><path d="M 58.832031 21.300781 L 60.308594 21.300781 L 60.308594 22.550781 L 58.832031 22.550781 Z M 58.832031 21.300781 " clip-rule="nonzero"/></clipPath><clipPath id="0107a13df8"><path d="M 60.300781 21.75 C 59.625 22.800781 59.023438 22.574219 58.875 22.351562 C 58.800781 22.199219 58.875 21.523438 59.101562 21.375 C 59.25 21.226562 60.074219 21.449219 60.074219 21.449219 " clip-rule="nonzero"/></clipPath><clipPath id="c9fcb47502"><path d="M 51.929688 22.652344 L 53.410156 22.652344 L 53.410156 23.902344 L 51.929688 23.902344 Z M 51.929688 22.652344 " clip-rule="nonzero"/></clipPath><clipPath id="abb686f76d"><path d="M 53.398438 23.101562 C 52.726562 24.148438 52.125 23.925781 51.976562 23.699219 C 51.898438 23.550781 51.976562 22.875 52.199219 22.726562 C 52.351562 22.574219 53.175781 22.800781 53.175781 22.800781 " clip-rule="nonzero"/></clipPath><clipPath id="c31191fd05"><path d="M 52.832031 22.652344 L 54.308594 22.652344 L 54.308594 23.902344 L 52.832031 23.902344 Z M 52.832031 22.652344 " clip-rule="nonzero"/></clipPath><clipPath id="9b9b280e92"><path d="M 54.300781 23.101562 C 53.625 24.148438 53.023438 23.925781 52.875 23.699219 C 52.800781 23.550781 52.875 22.875 53.101562 22.726562 C 53.25 22.574219 54.074219 22.800781 54.074219 22.800781 " clip-rule="nonzero"/></clipPath><clipPath id="ff4c415d35"><path d="M 51.179688 22.652344 L 52.660156 22.652344 L 52.660156 23.902344 L 51.179688 23.902344 Z M 51.179688 22.652344 " clip-rule="nonzero"/></clipPath><clipPath id="aedbb15c23"><path d="M 52.648438 23.101562 C 51.976562 24.148438 51.375 23.925781 51.226562 23.699219 C 51.148438 23.550781 51.226562 22.875 51.449219 22.726562 C 51.601562 22.574219 52.425781 22.800781 52.425781 22.800781 " clip-rule="nonzero"/></clipPath><clipPath id="420c40843e"><path d="M 51.78125 23.101562 L 53.257812 23.101562 L 53.257812 24.351562 L 51.78125 24.351562 Z M 51.78125 23.101562 " clip-rule="nonzero"/></clipPath><clipPath id="3db83e9881"><path d="M 53.25 23.550781 C 52.574219 24.601562 51.976562 24.375 51.824219 24.148438 C 51.75 24 51.824219 23.324219 52.050781 23.175781 C 52.199219 23.023438 53.023438 23.25 53.023438 23.25 " clip-rule="nonzero"/></clipPath><clipPath id="b51abf9a08"><path d="M 50.429688 23.253906 L 51.910156 23.253906 L 51.910156 24.503906 L 50.429688 24.503906 Z M 50.429688 23.253906 " clip-rule="nonzero"/></clipPath><clipPath id="cbe5364af3"><path d="M 51.898438 23.699219 C 51.226562 24.75 50.625 24.523438 50.476562 24.300781 C 50.398438 24.148438 50.476562 23.476562 50.699219 23.324219 C 50.851562 23.175781 51.675781 23.398438 51.675781 23.398438 " clip-rule="nonzero"/></clipPath><clipPath id="a9fa6a1086"><path d="M 49.53125 23.253906 L 51 23.253906 L 51 24.503906 L 49.53125 24.503906 Z M 49.53125 23.253906 " clip-rule="nonzero"/></clipPath><clipPath id="6cc5157f28"><path d="M 51 23.699219 C 50.324219 24.75 49.726562 24.523438 49.574219 24.300781 C 49.5 24.148438 49.574219 23.476562 49.800781 23.324219 C 49.949219 23.175781 50.773438 23.398438 50.773438 23.398438 " clip-rule="nonzero"/></clipPath><clipPath id="4f0694f8f9"><path d="M 50.582031 23.101562 L 52.058594 23.101562 L 52.058594 24.351562 L 50.582031 24.351562 Z M 50.582031 23.101562 " clip-rule="nonzero"/></clipPath><clipPath id="cdfed03fed"><path d="M 52.050781 23.550781 C 51.375 24.601562 50.773438 24.375 50.625 24.148438 C 50.550781 24 50.625 23.324219 50.851562 23.175781 C 51 23.023438 51.824219 23.25 51.824219 23.25 " clip-rule="nonzero"/></clipPath><clipPath id="603130c436"><path d="M 48.480469 23.550781 L 49.957031 23.550781 L 49.957031 24.800781 L 48.480469 24.800781 Z M 48.480469 23.550781 " clip-rule="nonzero"/></clipPath><clipPath id="b550e1d3e6"><path d="M 49.949219 24 C 49.273438 25.050781 48.675781 24.824219 48.523438 24.601562 C 48.449219 24.449219 48.523438 23.773438 48.75 23.625 C 48.898438 23.476562 49.726562 23.699219 49.726562 23.699219 " clip-rule="nonzero"/></clipPath><clipPath id="f22c7d6368"><path d="M 48.929688 23.550781 L 50.410156 23.550781 L 50.410156 24.800781 L 48.929688 24.800781 Z M 48.929688 23.550781 " clip-rule="nonzero"/></clipPath><clipPath id="41b1541b96"><path d="M 50.398438 24 C 49.726562 25.050781 49.125 24.824219 48.976562 24.601562 C 48.898438 24.449219 48.976562 23.773438 49.199219 23.625 C 49.351562 23.476562 50.175781 23.699219 50.175781 23.699219 " clip-rule="nonzero"/></clipPath><clipPath id="2b07990822"><path d="M 48.339844 24.28125 L 48.695312 24.28125 L 48.695312 24.535156 L 48.339844 24.535156 Z M 48.339844 24.28125 " clip-rule="nonzero"/></clipPath><clipPath id="4f5cdb7343"><path d="M 48.675781 24.449219 C 48 24.675781 48.601562 24.300781 48.601562 24.300781 " clip-rule="nonzero"/></clipPath><clipPath id="7ffa3040fd"><path d="M 47.953125 22.410156 L 54 22.410156 L 54 24.9375 L 47.953125 24.9375 Z M 47.953125 22.410156 " clip-rule="nonzero"/></clipPath><clipPath id="2dfc6955a2"><path d="M 48 24.074219 C 52.5 23.398438 53.398438 22.351562 53.699219 22.425781 C 53.925781 22.5 54 23.101562 53.925781 23.101562 C 53.925781 23.101562 53.550781 22.5 53.550781 22.5 C 53.550781 22.5 54 22.875 54 23.023438 C 53.925781 23.476562 52.425781 24.148438 51.523438 24.449219 C 50.476562 24.75 48.449219 25.125 48.074219 24.824219 C 47.925781 24.675781 48 24.074219 48 24.074219 " clip-rule="nonzero"/></clipPath></defs><path fill="#000000" d="M 63.519531 21.125 C 62.898438 21.375 58.910156 22.375 54.796875 23.246094 L 47.320312 24.992188 L 64.640625 25.617188 C 76.976562 26.117188 82.210938 26.742188 82.585938 27.738281 C 82.957031 28.988281 78.222656 29.359375 62.023438 29.359375 C 45.453125 29.359375 40.46875 29.734375 38.476562 31.234375 C 36.355469 32.855469 39.347656 32.980469 65.140625 33.105469 C 89.9375 33.105469 94.046875 33.355469 94.046875 34.976562 C 94.046875 36.597656 89.8125 36.847656 63.644531 36.847656 C 33.492188 36.847656 29.253906 37.222656 29.253906 39.59375 C 29.253906 40.46875 38.351562 40.59375 55.796875 40.09375 C 81.710938 39.34375 92.429688 40.09375 91.929688 42.464844 C 91.679688 43.210938 78.472656 43.960938 58.285156 44.335938 C 37.851562 44.710938 24.894531 45.457031 24.644531 46.207031 C 24.394531 47.082031 34.113281 47.332031 52.554688 47.082031 C 78.597656 46.707031 85.203125 47.453125 82.585938 49.949219 C 82.210938 50.449219 68.378906 50.699219 51.808594 50.574219 C 25.640625 50.574219 21.777344 50.699219 21.777344 52.445312 C 21.777344 54.070312 25.390625 54.316406 48.566406 54.316406 C 71.867188 54.316406 75.359375 54.566406 75.359375 56.191406 C 75.359375 57.9375 71.746094 58.1875 47.695312 58.0625 C 23.023438 57.9375 19.910156 58.0625 19.535156 59.933594 C 19.160156 61.679688 21.527344 61.929688 42.585938 61.804688 C 61.402344 61.679688 66.011719 61.929688 66.011719 63.300781 C 66.011719 64.550781 60.902344 65.050781 41.339844 65.300781 C 24.769531 65.546875 16.792969 66.046875 17.042969 66.921875 C 17.292969 67.792969 28.007812 68.167969 48.816406 68.042969 C 78.597656 67.917969 83.957031 68.542969 81.089844 71.539062 C 80.589844 71.914062 66.011719 72.164062 48.566406 71.914062 C 20.285156 71.664062 16.792969 71.789062 16.792969 73.535156 C 16.792969 75.28125 20.035156 75.53125 44.082031 75.53125 C 69.003906 75.53125 75.480469 76.28125 71.621094 78.652344 C 70.871094 79.148438 58.285156 79.398438 43.582031 79.273438 C 20.40625 79.148438 16.792969 79.398438 16.792969 81.148438 C 16.792969 82.769531 21.15625 83.019531 48.941406 83.269531 C 69.253906 83.519531 80.964844 84.140625 80.964844 84.890625 C 80.964844 85.640625 69.375 86.261719 49.441406 86.511719 C 25.019531 86.761719 17.914062 87.136719 18.414062 88.382812 C 18.789062 89.507812 27.511719 90.007812 53.925781 90.257812 C 84.078125 90.503906 89.0625 90.753906 89.0625 92.378906 C 89.0625 94 84.203125 94.25 54.050781 94.25 C 31.125 94.25 19.410156 94.625 19.910156 95.496094 C 20.40625 96.246094 30.25 96.746094 45.453125 96.746094 C 61.652344 96.746094 70.5 97.242188 70.996094 98.117188 C 71.496094 98.867188 71.621094 99.738281 71.246094 99.988281 C 70.871094 100.363281 59.90625 100.613281 46.824219 100.488281 C 24.769531 100.363281 20.160156 100.988281 24.269531 103.609375 C 25.019531 103.980469 40.09375 104.355469 57.914062 104.230469 C 86.199219 104.230469 90.308594 104.355469 90.308594 106.105469 C 90.308594 107.726562 86.199219 107.976562 58.535156 107.976562 C 30.875 107.976562 26.886719 108.226562 27.511719 109.847656 C 28.132812 111.46875 32.121094 111.71875 53.054688 111.71875 C 74.609375 111.71875 77.851562 111.96875 77.851562 113.589844 C 77.851562 115.335938 74.984375 115.460938 55.421875 115.214844 C 39.222656 114.964844 32.992188 115.214844 32.992188 116.210938 C 32.992188 118.707031 36.355469 119.207031 51.308594 119.207031 C 62.148438 119.207031 65.515625 119.582031 65.015625 120.703125 C 64.765625 121.828125 61.152344 122.449219 54.050781 122.574219 C 40.34375 122.824219 40.59375 122.699219 44.582031 124.945312 C 47.074219 126.320312 49.691406 126.566406 53.179688 126.070312 C 57.914062 125.195312 58.285156 125.320312 57.664062 127.691406 C 56.792969 130.9375 57.664062 131.183594 68.253906 131.558594 C 74.859375 131.808594 76.605469 131.433594 76.605469 130.0625 C 76.605469 128.9375 78.222656 126.816406 80.21875 125.070312 C 83.582031 122.324219 84.703125 122.074219 91.804688 122.699219 C 108.75 124.199219 112.363281 122.949219 110.871094 116.210938 C 110.496094 114.089844 109.871094 111.34375 109.625 110.222656 C 109.375 108.972656 110.246094 107.476562 111.617188 106.726562 C 113.609375 105.605469 113.734375 104.980469 112.613281 102.859375 C 111.492188 100.738281 111.742188 99.988281 113.859375 98.367188 C 116.226562 96.746094 116.351562 96.371094 114.609375 94.75 C 111.867188 92.003906 112.238281 91.003906 116.851562 87.886719 C 118.96875 86.386719 121.085938 84.890625 121.210938 84.765625 C 121.460938 84.640625 120.089844 82.019531 117.972656 79.027344 C 111.242188 69.042969 110.246094 66.296875 110.496094 56.5625 C 110.746094 41.589844 104.640625 32.605469 89.4375 25.367188 C 82.460938 22 67.632812 19.628906 63.519531 21.125 Z M 100.527344 38.96875 C 104.515625 43.585938 106.132812 48.953125 106.382812 57.9375 C 106.507812 67.046875 108.75 74.160156 113.113281 79.773438 C 114.730469 82.019531 114.609375 82.769531 111.867188 87.011719 C 110.121094 89.632812 109 92.503906 109.375 93.375 C 109.746094 94.375 109 98.992188 107.628906 103.734375 C 106.257812 108.472656 105.511719 112.96875 105.761719 113.714844 C 107.132812 117.460938 104.015625 118.582031 92.304688 118.582031 C 80.714844 118.582031 80.464844 118.582031 76.355469 122.574219 C 73.738281 125.195312 70.871094 126.691406 68.753906 126.691406 C 66.882812 126.691406 65.390625 126.320312 65.390625 125.820312 C 65.390625 123.824219 71.121094 119.207031 73.613281 119.207031 C 75.109375 119.207031 77.226562 118.332031 78.347656 117.335938 C 79.34375 116.335938 82.585938 114.214844 85.449219 112.59375 C 93.300781 108.472656 94.171875 106.226562 89.8125 102.109375 L 86.199219 98.867188 L 88.9375 96.621094 C 93.050781 93.25 92.179688 90.132812 85.324219 84.765625 C 78.597656 79.398438 77.851562 77.152344 81.585938 73.910156 C 82.957031 72.785156 84.078125 71.039062 84.078125 70.039062 C 84.078125 67.792969 79.34375 64.300781 76.355469 64.300781 C 75.109375 64.300781 74.113281 63.675781 74.113281 62.929688 C 74.113281 61.304688 87.816406 48.078125 89.5625 48.078125 C 91.804688 48.078125 95.292969 43.960938 95.292969 41.214844 C 95.292969 36.472656 97.535156 35.601562 100.527344 38.96875 Z M 100.527344 38.96875 " fill-opacity="1" fill-rule="nonzero"/><path fill="#000000" d="M 147.628906 76.78125 C 147.628906 95.871094 148.125 106.726562 148.875 106.726562 C 149.621094 106.726562 150.121094 95.871094 150.121094 76.78125 C 150.121094 57.6875 149.621094 46.832031 148.875 46.832031 C 148.125 46.832031 147.628906 57.6875 147.628906 76.78125 Z M 147.628906 76.78125 " fill-opacity="1" fill-rule="nonzero"/><path fill="#000000" d="M 239.582031 54.941406 C 239.335938 55.316406 239.210938 57.1875 239.582031 59.308594 C 240.082031 62.554688 240.582031 63.054688 244.195312 63.054688 C 248.179688 63.054688 248.304688 62.804688 248.179688 58.6875 C 247.933594 54.691406 247.558594 54.316406 244.070312 54.316406 C 241.953125 54.316406 239.957031 54.566406 239.582031 54.941406 Z M 239.582031 54.941406 " fill-opacity="1" fill-rule="nonzero"/><path fill="#000000" d="M 198.964844 67.046875 C 197.34375 67.917969 195.722656 70.039062 195.351562 72.039062 C 194.976562 73.910156 194.105469 75.15625 193.480469 74.78125 C 192.859375 74.410156 192.734375 72.535156 193.105469 70.664062 L 193.855469 67.171875 L 184.386719 67.046875 L 175.039062 66.921875 L 175.039062 94.25 L 183.761719 94.25 L 183.761719 84.890625 C 183.761719 74.78125 184.011719 74.53125 190.988281 76.28125 C 192.984375 76.902344 193.730469 78.027344 193.730469 80.648438 C 193.730469 89.257812 197.964844 94.25 205.441406 94.25 C 211.921875 94.25 214.664062 92.378906 215.660156 87.011719 C 216.40625 83.269531 216.285156 83.019531 213.042969 83.019531 C 211.175781 83.019531 208.808594 84.140625 207.5625 85.765625 C 204.945312 88.882812 202.949219 88.132812 202.203125 83.640625 C 201.582031 80.648438 201.703125 80.523438 208.308594 80.523438 C 216.035156 80.523438 217.15625 79.148438 215.039062 72.660156 C 212.917969 66.296875 205.691406 63.800781 198.964844 67.046875 Z M 209.179688 73.660156 C 209.679688 75.15625 208.808594 75.53125 205.566406 75.53125 C 202.328125 75.53125 201.457031 75.15625 201.953125 73.660156 C 202.453125 72.660156 203.949219 71.789062 205.566406 71.789062 C 207.1875 71.789062 208.683594 72.660156 209.179688 73.660156 Z M 209.179688 73.660156 " fill-opacity="1" fill-rule="nonzero"/><path fill="#000000" d="M 255.035156 66.796875 C 251.296875 68.417969 249.425781 73.660156 250.050781 81.394531 C 250.796875 90.878906 253.539062 94.25 260.269531 94.25 C 263.382812 94.25 266.746094 93.875 267.867188 93.5 C 270.359375 92.503906 272.480469 87.511719 271.480469 84.890625 C 270.484375 82.394531 263.507812 82.394531 263.507812 84.765625 C 263.507812 87.761719 260.765625 88.507812 258.898438 86.136719 C 255.90625 81.894531 256.902344 80.523438 263.257812 80.523438 C 271.359375 80.523438 272.480469 79.523438 270.984375 74.035156 C 270.234375 71.539062 268.867188 68.917969 267.992188 68.167969 C 265.5 66.046875 258.398438 65.425781 255.035156 66.796875 Z M 264.753906 73.660156 C 264.753906 74.90625 263.507812 75.53125 261.015625 75.53125 C 257.402344 75.53125 256.28125 74.410156 258.148438 72.660156 C 259.769531 71.039062 264.753906 71.789062 264.753906 73.660156 Z M 264.753906 73.660156 " fill-opacity="1" fill-rule="nonzero"/><path fill="#000000" d="M 311.851562 67.421875 C 309.238281 68.917969 308.363281 70.539062 307.617188 74.90625 C 305.746094 87.511719 309.734375 94.25 318.832031 94.25 C 325.308594 94.25 328.300781 91.878906 328.300781 86.636719 C 328.300781 83.394531 327.925781 83.019531 324.5625 83.019531 C 322.195312 83.019531 320.824219 83.640625 320.824219 84.765625 C 320.824219 87.761719 318.082031 88.507812 316.214844 86.136719 C 313.222656 81.894531 314.222656 80.523438 320.078125 80.523438 C 323.066406 80.523438 326.433594 80.273438 327.304688 79.898438 C 329.671875 78.902344 328.675781 71.289062 325.808594 68.667969 C 322.695312 65.796875 315.839844 65.175781 311.851562 67.421875 Z M 322.070312 73.660156 C 322.070312 74.90625 320.824219 75.53125 318.332031 75.53125 C 315.589844 75.53125 314.84375 75.03125 315.34375 73.660156 C 315.839844 72.660156 317.460938 71.789062 319.082031 71.789062 C 320.949219 71.789062 322.070312 72.535156 322.070312 73.660156 Z M 322.070312 73.660156 " fill-opacity="1" fill-rule="nonzero"/><path fill="#000000" d="M 216.78125 70.164062 C 217.40625 73.035156 221.144531 92.875 221.144531 93.875 C 221.144531 94.125 223.632812 94.25 226.625 94.25 L 232.230469 94.25 L 233.601562 87.011719 C 235.222656 79.148438 237.09375 71.289062 238.214844 68.542969 C 238.710938 67.296875 237.714844 66.796875 234.476562 66.796875 C 230.613281 66.796875 230.113281 67.171875 229.367188 70.664062 C 228.992188 72.785156 228.617188 76.53125 228.617188 78.777344 C 228.617188 85.886719 226.375 83.519531 225.253906 75.15625 C 224.257812 67.546875 224.257812 67.421875 220.019531 67.046875 C 216.035156 66.671875 215.910156 66.796875 216.78125 70.164062 Z M 216.78125 70.164062 " fill-opacity="1" fill-rule="nonzero"/><path fill="#000000" d="M 239.832031 78.527344 C 239.832031 85.015625 239.460938 91.128906 239.085938 92.253906 C 238.460938 93.875 239.210938 94.25 243.074219 94.25 L 247.933594 94.25 L 247.183594 66.796875 L 239.832031 66.796875 Z M 239.832031 78.527344 " fill-opacity="1" fill-rule="nonzero"/><path fill="#000000" d="M 272.976562 72.535156 C 273.851562 75.65625 275.09375 81.894531 275.46875 86.261719 L 276.339844 94.25 L 288.179688 94.25 L 288.675781 89.382812 C 289.050781 84.765625 288.925781 84.515625 286.933594 86.261719 C 284.566406 88.507812 280.828125 88.257812 279.957031 85.765625 C 279.707031 84.890625 280.578125 84.265625 281.949219 84.265625 C 283.320312 84.265625 285.3125 82.894531 286.308594 81.394531 C 288.304688 78.277344 292.167969 77.402344 292.167969 80.023438 C 292.167969 81.023438 293.535156 82.644531 295.28125 83.765625 C 297.027344 84.890625 298.023438 86.261719 297.648438 86.886719 C 296.652344 88.507812 292.414062 88.257812 291.792969 86.386719 C 291.417969 85.640625 291.042969 87.011719 291.042969 89.507812 C 290.921875 94.25 290.921875 94.25 295.78125 94.25 C 301.636719 94.25 301.761719 94 302.882812 86.136719 C 303.253906 82.769531 304.378906 77.402344 305.375 74.285156 C 307.617188 66.796875 307.617188 66.796875 303.503906 66.796875 C 299.519531 66.796875 299.019531 67.546875 297.648438 77.027344 C 296.652344 84.265625 294.660156 84.890625 294.535156 78.027344 C 294.410156 75.28125 294.160156 72.410156 294.035156 71.789062 C 293.910156 71.039062 293.660156 69.667969 293.535156 68.667969 C 293.414062 67.421875 292.167969 66.796875 289.796875 66.796875 C 286.433594 66.796875 286.183594 67.171875 285.4375 72.660156 C 284.191406 80.898438 283.445312 83.144531 282.074219 82.394531 C 281.449219 81.894531 280.953125 78.277344 280.953125 74.160156 L 280.953125 66.796875 L 271.234375 66.796875 Z M 272.976562 72.535156 " fill-opacity="1" fill-rule="nonzero"/><path fill="#000000" d="M 330.792969 80.773438 L 330.792969 94.375 L 334.90625 94 L 338.890625 93.625 L 338.890625 76.15625 L 343.628906 76.28125 C 348.113281 76.40625 348.238281 76.40625 348.238281 71.789062 L 348.238281 67.171875 L 339.515625 67.046875 L 330.792969 67.046875 Z M 330.792969 80.773438 " fill-opacity="1" fill-rule="nonzero"/><path stroke-linecap="butt" transform="matrix(0.0991228, -0.743421, 0.743421, 0.0991228, 290.99436, 88.718843)" fill="none" stroke-linejoin="miter" d="M 0.119858 1.410301 C 4.597592 0.865814 8.632716 0.863749 12.225917 1.409268 " stroke="#000000" stroke-width="2" stroke-opacity="1" stroke-miterlimit="4"/><path stroke-linecap="butt" transform="matrix(0.0489608, -0.7484, 0.7484, 0.0489608, 285.001889, 92.900135)" fill="none" stroke-linejoin="miter" d="M 0.246995 1.985593 C 7.108836 2.836335 14.254096 2.83342 21.688652 1.986904 " stroke="#000000" stroke-width="4" stroke-opacity="1" stroke-miterlimit="4"/><path stroke-linecap="butt" transform="matrix(0.598244, -0.452331, 0.452331, 0.598244, 284.626421, 80.034729)" fill="none" stroke-linejoin="miter" d="M 0.63378 5.2987 C 7.657175 -0.432348 11.085327 -0.432551 10.91094 5.299106 " stroke="#000000" stroke-width="2" stroke-opacity="1" stroke-miterlimit="4"/><g clip-path="url(#e9d7068e0f)"><g clip-path="url(#a81533cf21)"><path fill="#000000" d="M 277.5 81.375 L 289.214844 81.375 L 289.214844 91.050781 L 277.5 91.050781 Z M 277.5 81.375 " fill-opacity="1" fill-rule="nonzero"/></g></g><g clip-path="url(#d34ac36b8e)"><g clip-path="url(#be81ffe314)"><path fill="#000000" d="M 277.949219 81.300781 L 288.082031 81.300781 L 288.082031 91.125 L 277.949219 91.125 Z M 277.949219 81.300781 " fill-opacity="1" fill-rule="nonzero"/></g></g><g clip-path="url(#fa9f470164)"><g clip-path="url(#0246464d0e)"><path fill="#000000" d="M 276.601562 81.449219 L 286.730469 81.449219 L 286.730469 91.273438 L 276.601562 91.273438 Z M 276.601562 81.449219 " fill-opacity="1" fill-rule="nonzero"/></g></g><g clip-path="url(#849deb152e)"><g clip-path="url(#04a815fd43)"><path fill="#000000" d="M 289.648438 80.773438 L 301.714844 80.773438 L 301.714844 91.425781 L 289.648438 91.425781 Z M 289.648438 80.773438 " fill-opacity="1" fill-rule="nonzero"/></g></g><g clip-path="url(#4f97c8d581)"><g clip-path="url(#71ce6a46aa)"><path fill="#000000" d="M 277.726562 82.050781 L 289.667969 82.050781 L 289.667969 92.175781 L 277.726562 92.175781 Z M 277.726562 82.050781 " fill-opacity="1" fill-rule="nonzero"/></g></g><g clip-path="url(#42bdecb3e8)"><g clip-path="url(#9c2aede92c)"><path fill="#000000" d="M 280.726562 80.101562 L 290.167969 80.101562 L 290.167969 89.324219 L 280.726562 89.324219 Z M 280.726562 80.101562 " fill-opacity="1" fill-rule="nonzero"/></g></g><g clip-path="url(#f031d5a217)"><g clip-path="url(#913c6fad33)"><path fill="#000000" d="M 280.800781 80.023438 L 290.851562 80.023438 L 290.851562 90.152344 L 280.800781 90.152344 Z M 280.800781 80.023438 " fill-opacity="1" fill-rule="nonzero"/></g></g><g clip-path="url(#b6a31d33cc)"><g clip-path="url(#024d6a3ffe)"><path fill="#000000" d="M 278.324219 80.550781 L 287.765625 80.550781 L 287.765625 89.773438 L 278.324219 89.773438 Z M 278.324219 80.550781 " fill-opacity="1" fill-rule="nonzero"/></g></g><g clip-path="url(#2847221dce)"><g clip-path="url(#acc69a6591)"><path fill="#000000" d="M 281.324219 78.148438 L 290.765625 78.148438 L 290.765625 87.375 L 281.324219 87.375 Z M 281.324219 78.148438 " fill-opacity="1" fill-rule="nonzero"/></g></g><g clip-path="url(#451dcb681b)"><g clip-path="url(#053f9524e8)"><path fill="#000000" d="M 289.125 79.949219 L 298.566406 79.949219 L 298.566406 89.175781 L 289.125 89.175781 Z M 289.125 79.949219 " fill-opacity="1" fill-rule="nonzero"/></g></g><g clip-path="url(#4756cd05bc)"><g clip-path="url(#42beb5ee49)"><path fill="#000000" d="M 290.023438 79.125 L 297.75 79.125 L 297.75 87.210938 L 290.023438 87.210938 Z M 290.023438 79.125 " fill-opacity="1" fill-rule="nonzero"/></g></g><g clip-path="url(#c9289028f0)"><g clip-path="url(#4a7b07b442)"><path fill="#000000" d="M 290.398438 78.976562 L 297.386719 78.976562 L 297.386719 85.726562 L 290.398438 85.726562 Z M 290.398438 78.976562 " fill-opacity="1" fill-rule="nonzero"/></g></g><g clip-path="url(#3aa2bcf237)"><g clip-path="url(#d462ce88b0)"><path fill="#000000" d="M 290.324219 78.523438 L 297.75 78.523438 L 297.75 88.269531 L 290.324219 88.269531 Z M 290.324219 78.523438 " fill-opacity="1" fill-rule="nonzero"/></g></g><g clip-path="url(#df6b708919)"><g clip-path="url(#d3c386344e)"><path fill="#000000" d="M 290.25 79.199219 L 297.003906 79.199219 L 297.003906 85.726562 L 290.25 85.726562 Z M 290.25 79.199219 " fill-opacity="1" fill-rule="nonzero"/></g></g><g clip-path="url(#0260425771)"><g clip-path="url(#397ac4adca)"><path fill="#000000" d="M 289.875 77.550781 L 299.25 77.550781 L 299.25 89.011719 L 289.875 89.011719 Z M 289.875 77.550781 " fill-opacity="1" fill-rule="nonzero"/></g></g><g clip-path="url(#80638e5600)"><g clip-path="url(#56f78d2bca)"><path fill="#000000" d="M 289.648438 78.074219 L 298.125 78.074219 L 298.125 88.335938 L 289.648438 88.335938 Z M 289.648438 78.074219 " fill-opacity="1" fill-rule="nonzero"/></g></g><path stroke-linecap="round" transform="matrix(0.74321, -0.100693, 0.100693, 0.74321, 46.84443, 22.654362)" fill="none" stroke-linejoin="miter" d="M 0.683902 2.665342 C 9.58151 -0.239304 19.691329 -0.220357 31.002339 2.725944 " stroke="#000000" stroke-width="1" stroke-opacity="1" stroke-miterlimit="4"/><g clip-path="url(#6ca3a42e93)"><g clip-path="url(#5ac45e27b1)"><path fill="#000000" d="M 54.300781 18.226562 L 64.269531 18.226562 L 64.269531 26.25 L 54.300781 26.25 Z M 54.300781 18.226562 " fill-opacity="1" fill-rule="nonzero"/></g></g><g clip-path="url(#4a74ee0468)"><g clip-path="url(#23ba1f0b9e)"><path fill="#000000" d="M 50.851562 18.523438 L 65.183594 18.523438 L 65.183594 27 L 50.851562 27 Z M 50.851562 18.523438 " fill-opacity="1" fill-rule="nonzero"/></g></g><g clip-path="url(#a95b2f28b8)"><g clip-path="url(#bbd9bc520e)"><path fill="#000000" d="M 53.476562 18.976562 L 60.890625 18.976562 L 60.890625 26.25 L 53.476562 26.25 Z M 53.476562 18.976562 " fill-opacity="1" fill-rule="nonzero"/></g></g><g clip-path="url(#0c7d576305)"><g clip-path="url(#f78d46f0d2)"><path fill="#000000" d="M 57.675781 18.375 L 65.09375 18.375 L 65.09375 25.648438 L 57.675781 25.648438 Z M 57.675781 18.375 " fill-opacity="1" fill-rule="nonzero"/></g></g><g clip-path="url(#949559f1cc)"><g clip-path="url(#0107a13df8)"><path fill="#000000" d="M 55.875 18.375 L 63.292969 18.375 L 63.292969 25.648438 L 55.875 25.648438 Z M 55.875 18.375 " fill-opacity="1" fill-rule="nonzero"/></g></g><g clip-path="url(#c9fcb47502)"><g clip-path="url(#abb686f76d)"><path fill="#000000" d="M 48.976562 19.726562 L 56.390625 19.726562 L 56.390625 27 L 48.976562 27 Z M 48.976562 19.726562 " fill-opacity="1" fill-rule="nonzero"/></g></g><g clip-path="url(#c31191fd05)"><g clip-path="url(#9b9b280e92)"><path fill="#000000" d="M 49.875 19.726562 L 57.292969 19.726562 L 57.292969 27 L 49.875 27 Z M 49.875 19.726562 " fill-opacity="1" fill-rule="nonzero"/></g></g><g clip-path="url(#ff4c415d35)"><g clip-path="url(#aedbb15c23)"><path fill="#000000" d="M 48.226562 19.726562 L 55.640625 19.726562 L 55.640625 27 L 48.226562 27 Z M 48.226562 19.726562 " fill-opacity="1" fill-rule="nonzero"/></g></g><g clip-path="url(#420c40843e)"><g clip-path="url(#3db83e9881)"><path fill="#000000" d="M 48.824219 20.175781 L 56.242188 20.175781 L 56.242188 27.449219 L 48.824219 27.449219 Z M 48.824219 20.175781 " fill-opacity="1" fill-rule="nonzero"/></g></g><g clip-path="url(#b51abf9a08)"><g clip-path="url(#cbe5364af3)"><path fill="#000000" d="M 47.476562 20.324219 L 54.890625 20.324219 L 54.890625 27.601562 L 47.476562 27.601562 Z M 47.476562 20.324219 " fill-opacity="1" fill-rule="nonzero"/></g></g><g clip-path="url(#a9fa6a1086)"><g clip-path="url(#6cc5157f28)"><path fill="#000000" d="M 46.574219 20.324219 L 53.992188 20.324219 L 53.992188 27.601562 L 46.574219 27.601562 Z M 46.574219 20.324219 " fill-opacity="1" fill-rule="nonzero"/></g></g><g clip-path="url(#4f0694f8f9)"><g clip-path="url(#cdfed03fed)"><path fill="#000000" d="M 47.625 20.175781 L 55.042969 20.175781 L 55.042969 27.449219 L 47.625 27.449219 Z M 47.625 20.175781 " fill-opacity="1" fill-rule="nonzero"/></g></g><g clip-path="url(#603130c436)"><g clip-path="url(#b550e1d3e6)"><path fill="#000000" d="M 45.523438 20.625 L 52.941406 20.625 L 52.941406 27.898438 L 45.523438 27.898438 Z M 45.523438 20.625 " fill-opacity="1" fill-rule="nonzero"/></g></g><g clip-path="url(#f22c7d6368)"><g clip-path="url(#41b1541b96)"><path fill="#000000" d="M 45.976562 20.625 L 53.390625 20.625 L 53.390625 27.898438 L 45.976562 27.898438 Z M 45.976562 20.625 " fill-opacity="1" fill-rule="nonzero"/></g></g><g clip-path="url(#2b07990822)"><g clip-path="url(#4f5cdb7343)"><path fill="#000000" d="M 45 21.300781 L 51.753906 21.300781 L 51.753906 27.824219 L 45 27.824219 Z M 45 21.300781 " fill-opacity="1" fill-rule="nonzero"/><path fill="#000000" d="M 45 21.300781 L 51.753906 21.300781 L 51.753906 27.824219 L 45 27.824219 Z M 45 21.300781 " fill-opacity="1" fill-rule="nonzero"/><path fill="#000000" d="M 45 21.300781 L 51.753906 21.300781 L 51.753906 27.824219 L 45 27.824219 Z M 45 21.300781 " fill-opacity="1" fill-rule="nonzero"/></g></g><g clip-path="url(#7ffa3040fd)"><g clip-path="url(#2dfc6955a2)"><path fill="#000000" d="M 45 19.425781 L 57.007812 19.425781 L 57.007812 27.824219 L 45 27.824219 Z M 45 19.425781 " fill-opacity="1" fill-rule="nonzero"/></g></g></svg>